<?xml version="1.0" encoding="UTF-8"?>
<svg id="Layer_2" data-name="Layer 2" xmlns="http://www.w3.org/2000/svg" viewBox="0 0 251.08 142.55">
  <defs>
    <style>
      .cls-1 {
        fill: #8c8d8e;
      }

      .cls-2 {
        fill: #707173;
      }

      .cls-3 {
        letter-spacing: -.07em;
      }

      .cls-4 {
        letter-spacing: -.07em;
      }

      .cls-5 {
        font-size: 23.1px;
        letter-spacing: -.05em;
      }

      .cls-5, .cls-6, .cls-7 {
        font-family: ArialMT, Arial;
      }

      .cls-5, .cls-6, .cls-8 {
        fill: #2b4381;
      }

      .cls-9 {
        fill: #e6e7e7;
      }

      .cls-10 {
        fill: #ff6d2d;
      }

      .cls-11, .cls-7 {
        fill: #fff;
      }

      .cls-12 {
        letter-spacing: -.08em;
      }

      .cls-13 {
        stroke: #2b4381;
        stroke-width: .28px;
      }

      .cls-13, .cls-14 {
        fill: none;
      }

      .cls-6 {
        font-size: 9.87px;
      }

      .cls-15 {
        letter-spacing: -.17em;
      }

      .cls-16 {
        letter-spacing: -.11em;
      }

      .cls-17 {
        letter-spacing: -.07em;
      }

      .cls-14 {
        stroke: #ff6d2d;
        stroke-width: 5.67px;
      }

      .cls-7 {
        font-size: 11px;
        letter-spacing: -.05em;
      }

      .cls-18 {
        fill: #b4b4b5;
      }

      .cls-19 {
        fill: #d5e7f0;
      }
    </style>
  </defs>
  <g id="Layer_1-2" data-name="Layer 1">
    <rect class="cls-8" x="180.8" y="126.64" width="70.05" height="15.77"/>
    <g>
      <rect class="cls-8" x=".22" y=".04" width="31.9" height="31.7"/>
      <path class="cls-11" d="M20.82,28.06h-5v-6.47h-5.86v-3.9l3.64-13.48h7.22v13.48h1.44v3.87l-1.44.04v6.47ZM15.82,9.39l-1.68,8.3h1.68v-8.3Z"/>
    </g>
    <text class="cls-5" transform="translate(59.74 25.07)"><tspan x="0" y="0">Left Edge First</tspan></text>
    <text class="cls-7" transform="translate(183.22 138.67)"><tspan x="0" y="0">Roll Direction 4</tspan></text>
    <g>
      <line class="cls-14" x1="150.57" y1="69.81" x2="195.8" y2="69.81"/>
      <polygon class="cls-10" points="192.16 82.18 213.7 69.74 192.16 57.3 192.16 82.18"/>
      <path class="cls-9" d="M175.87,44.22h-98.84c-25.55-.82-33.71,12.1-33.71,12.1v63.8c0,8.66,13.46,15.67,30.08,15.67s30.08-7.02,30.08-15.67v-15.84h72.4v-60.06Z"/>
      <path class="cls-1" d="M102.17,115.37v-17.05l-32.99,1.41s29.14-.86,32.99,15.64"/>
      <path class="cls-18" d="M102.17,115.37c0,8.66-13.91,15.68-31.08,15.68s-31.08-7.02-31.08-15.68,13.91-15.67,31.08-15.67,31.08,7.02,31.08,15.67"/>
      <path class="cls-2" d="M80.79,116.28c0,2.58-4.43,4.67-9.9,4.67s-9.9-2.09-9.9-4.67,4.43-4.67,9.9-4.67,9.9,2.09,9.9,4.67"/>
      <path class="cls-19" d="M40.02,115.37v-63.8s8.43-12.93,34.83-12.1h102.12v60.06h-104.5s-28.6-.66-32.45,15.84"/>
      <path class="cls-11" d="M73.93,43.53h42.17c1.72,0,3.12,1.4,3.12,3.12v45.46c0,1.72-1.4,3.12-3.12,3.12h-42.16c-1.72,0-3.12-1.4-3.12-3.12v-45.46c0-1.72,1.4-3.12,3.12-3.12Z"/>
      <path class="cls-11" d="M65.29,92.57c0,1.72-1.4,3.12-3.12,3.12,0,0-14.82,1.07-22.15,11.71v-51.7c7.89-10.7,22.15-11.71,22.15-11.71,1.72,0,3.12,1.4,3.12,3.12v45.46Z"/>
      <rect class="cls-11" x="124.35" y="43.53" width="48.4" height="51.7" rx="3.12" ry="3.12"/>
      <rect class="cls-13" x=".14" y=".14" width="250.8" height="142.27"/>
    </g>
    <text class="cls-6" transform="translate(114.5 76.07) rotate(-180)"><tspan class="cls-4" x="0" y="0">P</tspan><tspan class="cls-3" x="5.84" y="0">R</tspan><tspan class="cls-12" x="12.24" y="0">I</tspan><tspan class="cls-3" x="14.24" y="0">N</tspan><tspan class="cls-12" x="20.63" y="0">TI</tspan><tspan class="cls-3" x="27.92" y="0">N</tspan><tspan x="34.31" y="0">G</tspan></text>
    <text class="cls-6" transform="translate(109.31 66.17) rotate(-180)"><tspan class="cls-12" x="0" y="0">R</tspan><tspan class="cls-17" x="6.38" y="0">EAD</tspan><tspan x="24.48" y="0">S</tspan></text>
    <text class="cls-6" transform="translate(115.49 56.28) rotate(-180)"><tspan class="cls-12" x="0" y="0">T</tspan><tspan class="cls-3" x="5.29" y="0">H</tspan><tspan class="cls-4" x="11.68" y="0">I</tspan><tspan class="cls-3" x="13.68" y="0">S</tspan><tspan class="cls-12" x="19.53" y="0"> </tspan><tspan class="cls-16" x="21.53" y="0">W</tspan><tspan class="cls-15" x="29.75" y="0">A</tspan><tspan x="34.63" y="0">Y</tspan></text>
    <g>
      <path class="cls-8" d="M62.31,84.46c-.68.06-1.03.11-1.73.22-1.51.24-2.91.1-2.91-1.54,0-1.6,1.17-2.44,2.66-2.67.23-.04.35-.06.58-.09,0-1.03-.01-1.55-.02-2.58.55-.08.83-.11,1.37-.16.02,2.71.03,4.07.05,6.82M60.92,81.45c-.19.03-.29.04-.49.07-.69.11-1.32.45-1.32,1.25,0,.79.62.95,1.33.84.2-.03.29-.05.49-.07,0-.84-.01-1.25-.02-2.09"/>
      <path class="cls-8" d="M57.54,85.24c-.6.12-.9.19-1.51.39-1.52.48-3.36,1.45-3.36-.46,0-.81.56-1.76,1.47-2.27,0,0,0-.01,0-.02-.39.14-.61-.13-.76-.37-.46-.86-.69-1.29-1.14-2.14.63-.3.95-.45,1.59-.73.35.7.52,1.06.86,1.77.2.43.39.54.99.33.18-.06.28-.09.46-.15,0-1.13,0-1.7,0-2.82.57-.18.85-.24,1.39-.36,0,2.71,0,4.07,0,6.83M56.14,82.67c-.19.06-.28.09-.47.15-.7.24-1.52.69-1.52,1.54s.8.55,1.51.3c.19-.06.28-.1.47-.15,0-.74,0-1.11,0-1.84"/>
      <path class="cls-8" d="M52.11,87.31c-.56.28-.84.43-1.38.71v-6.89c.54-.28.82-.42,1.38-.7,0,2.74,0,4.12,0,6.87"/>
      <path class="cls-8" d="M50.09,88.36c-.65.36-1,.57-1.71,1.02-1.1-1.36-1.68-1.98-2.72-3.2,0,0-.01,0-.02.02v5.15c-.52.42-.78.64-1.24,1.08v-6.89c.59-.56.92-.84,1.61-1.37,1.07,1.23,1.65,1.86,2.74,3.24,0,0,.01,0,.02-.01,0-2.06,0-3.09,0-5.16.54-.34.81-.5,1.32-.77v6.89Z"/>
      <path class="cls-8" d="M44.34,91.4c-.13.12-.19.18-.31.31v1.09c.12-.12.19-.18.31-.31v-1.09Z"/>
      <path class="cls-8" d="M57.09,75.55c-.6.15-.9.24-1.52.45-1.53.52-3.37,1.44-3.37-.46,0-.8.55-1.74,1.47-2.23v-.02c-.39.13-.61-.14-.76-.38-.46-.87-.69-1.3-1.13-2.17.62-.29.94-.43,1.58-.69.34.71.52,1.07.87,1.78.21.43.39.54,1,.33.18-.06.28-.1.46-.16,0-1.12,0-1.68,0-2.81.57-.18.85-.26,1.4-.4,0,2.7,0,4.05,0,6.75M55.69,73.08c-.19.06-.28.09-.47.16-.71.25-1.52.68-1.52,1.53s.81.55,1.52.3c.19-.07.28-.1.47-.16,0-.73,0-1.09,0-1.82"/>
      <path class="cls-8" d="M51.53,77.72c-1.63.8-2.37,1.19-4.08,2.37v-1.09c1.13-.78,1.71-1.14,2.73-1.69v-1.7c-.93.5-1.46.82-2.49,1.52v-1.09c1.03-.7,1.56-1.02,2.49-1.52v-1.93c-1.03.55-1.62.91-2.75,1.7,0-.43,0-.65,0-1.09,1.72-1.19,2.46-1.59,4.1-2.36,0,2.75,0,4.12,0,6.87"/>
      <path class="cls-8" d="M47.48,73.17c-.6.42-.9.64-1.48,1.1-.24.82-.36,1.24-.6,2.06-.59.49-.87.75-1.38,1.25v1.09c.37-.37.57-.56,1-.93-.38,1.46-.55,2.2-.89,3.66,0,0-.01.01-.02.02-.04-.09-.05-.13-.09-.22,0,.56,0,1.12,0,1.69.29-.29.44-.43.76-.72.99-3.64,1.57-5.46,2.69-9"/>
      <path class="cls-8" d="M61.77,63.93c.8-.09,1.2-.13,2.03-.2v1.07c-2.23.17-3.27.29-5.32.72,0-.43,0-.64,0-1.07.76-.16,1.14-.22,1.91-.34-.02-2.29-.03-3.44-.05-5.75.54-.08.82-.12,1.38-.18.02,2.31.02,3.46.04,5.75"/>
      <path class="cls-8" d="M58.35,65.55c-.53.11-.77.17-1.32.31v-2.75c-1.09.28-1.69.47-2.85.88,0,1.1,0,1.65,0,2.76-.58.21-.87.33-1.44.56v-6.86c.57-.23.87-.34,1.45-.54,0,1.2,0,1.81,0,3,1.16-.41,1.75-.6,2.84-.88v-3c.54-.15.78-.2,1.3-.31,0,2.75.01,4.12.02,6.83"/>
      <path class="cls-8" d="M51.98,67.64c-.56.25-.84.38-1.37.64v-6.89c.53-.26.81-.38,1.37-.62,0,2.75,0,4.13,0,6.87"/>
      <path class="cls-8" d="M46.1,69.91c.44-.16.95-.42,1.45-.77.5-.34,1.14-.95,1.14-1.7,0-1.19-3.12,1.55-3.12-.76,0-1.51,1.21-3.09,2.66-4.03.78-.51,1.14-.61,1.79-.8-.05.52-.08.78-.13,1.31-.46,0-1.02.15-1.59.52-.54.35-1.28,1.14-1.28,1.76,0,1.31,3.1-1.17,3.1,1.11,0,1.54-1.18,2.73-2.45,3.6-.62.42-1.2.78-1.71,1.01.05-.5.08-.74.13-1.24"/>
    </g>
    <text class="cls-6" transform="translate(168.01 76.22) rotate(-180)"><tspan class="cls-4" x="0" y="0">P</tspan><tspan class="cls-3" x="5.84" y="0">R</tspan><tspan class="cls-12" x="12.24" y="0">I</tspan><tspan class="cls-3" x="14.24" y="0">N</tspan><tspan class="cls-12" x="20.63" y="0">TI</tspan><tspan class="cls-3" x="27.92" y="0">N</tspan><tspan x="34.31" y="0">G</tspan></text>
    <text class="cls-6" transform="translate(162.82 66.33) rotate(-180)"><tspan class="cls-12" x="0" y="0">R</tspan><tspan class="cls-17" x="6.38" y="0">EAD</tspan><tspan x="24.48" y="0">S</tspan></text>
    <text class="cls-6" transform="translate(168.99 56.43) rotate(-180)"><tspan class="cls-12" x="0" y="0">T</tspan><tspan class="cls-3" x="5.29" y="0">H</tspan><tspan class="cls-4" x="11.68" y="0">I</tspan><tspan class="cls-3" x="13.68" y="0">S</tspan><tspan class="cls-12" x="19.53" y="0"> </tspan><tspan class="cls-16" x="21.53" y="0">W</tspan><tspan class="cls-15" x="29.75" y="0">A</tspan><tspan x="34.63" y="0">Y</tspan></text>
  </g>
</svg>