<?xml version="1.0" encoding="UTF-8"?>
<svg id="Layer_2" data-name="Layer 2" xmlns="http://www.w3.org/2000/svg" viewBox="0 0 251.08 142.64">
  <defs>
    <style>
      .cls-1 {
        fill: #8c8d8e;
      }

      .cls-2 {
        letter-spacing: -.11em;
      }

      .cls-3 {
        fill: #707173;
      }

      .cls-4 {
        letter-spacing: -.07em;
      }

      .cls-5 {
        letter-spacing: -.07em;
      }

      .cls-6 {
        font-size: 23.1px;
        letter-spacing: -.05em;
      }

      .cls-6, .cls-7, .cls-8 {
        font-family: ArialMT, Arial;
      }

      .cls-6, .cls-7, .cls-9 {
        fill: #2b4381;
      }

      .cls-10 {
        fill: #e6e7e7;
      }

      .cls-11 {
        fill: #ff6d2d;
      }

      .cls-12, .cls-8 {
        fill: #fff;
      }

      .cls-13 {
        letter-spacing: -.08em;
      }

      .cls-14 {
        stroke: #2b4381;
        stroke-width: .28px;
      }

      .cls-14, .cls-15 {
        fill: none;
      }

      .cls-16 {
        letter-spacing: -.07em;
      }

      .cls-7 {
        font-size: 9.87px;
      }

      .cls-17 {
        letter-spacing: -.07em;
      }

      .cls-15 {
        stroke: #ff6d2d;
        stroke-width: 5.67px;
      }

      .cls-18 {
        letter-spacing: -.17em;
      }

      .cls-8 {
        font-size: 11px;
        letter-spacing: -.05em;
      }

      .cls-19 {
        fill: #b4b4b5;
      }

      .cls-20 {
        fill: #d5e7f0;
      }

      .cls-21 {
        letter-spacing: 0em;
      }
    </style>
  </defs>
  <g id="Layer_1-2" data-name="Layer 1">
    <rect class="cls-9" x="180.89" y="126.74" width="70.05" height="15.77"/>
    <g>
      <rect class="cls-9" x=".2" width="33.57" height="33.56"/>
      <path class="cls-12" d="M11.07,9.51c0-2.99.42-4.02,1.82-4.66.68-.34,2.08-.46,5.15-.46s3.86.3,4.66,1.59c.46.8.57,1.71.57,4.88,0,2.62-.11,3.41-.71,4.21-.46.57-.65.72-1.59,1.14.76.27,1.24.64,1.66,1.25.46.68.6,1.52.6,3.6v2.69c0,3.34-.11,4.09-.83,4.93-.8.98-1.82,1.21-5.15,1.21-3.6,0-4.39-.15-5.23-1.1-.76-.87-.95-1.78-.95-4.85v-4.01h5.34v4.77c0,.65.27.98.76.98.6,0,.83-.42.83-1.63v-4.35c0-.91-.34-1.14-1.59-1.14h-1.55v-4.66h1.55c1.44,0,1.59-.19,1.59-1.7v-2.16c0-1.02-.27-1.48-.83-1.48-.61,0-.76.34-.76,1.48v2.31h-5.34v-2.84Z"/>
    </g>
    <text class="cls-8" transform="translate(182.86 138.77)"><tspan x="0" y="0">Roll Direction 3</tspan></text>
    <g>
      <line class="cls-15" x1="150.48" y1="69.9" x2="195.71" y2="69.9"/>
      <polygon class="cls-11" points="192.07 82.27 213.61 69.84 192.07 57.4 192.07 82.27"/>
      <path class="cls-10" d="M175.77,44.31h-98.84c-25.55-.82-33.71,12.1-33.71,12.1v63.8c0,8.66,13.47,15.67,30.08,15.67s30.08-7.02,30.08-15.67v-15.84h72.4v-60.06Z"/>
      <path class="cls-1" d="M102.07,115.46v-17.05l-32.99,1.41s29.14-.86,32.99,15.64"/>
      <path class="cls-19" d="M102.07,115.46c0,8.66-13.91,15.68-31.08,15.68s-31.07-7.02-31.07-15.68,13.91-15.67,31.07-15.67,31.08,7.02,31.08,15.67"/>
      <path class="cls-3" d="M80.7,116.38c0,2.58-4.43,4.67-9.9,4.67s-9.9-2.09-9.9-4.67,4.43-4.67,9.9-4.67,9.9,2.09,9.9,4.67"/>
      <path class="cls-20" d="M39.92,115.46v-63.8s8.43-12.93,34.83-12.1h102.12v60.06h-104.5s-28.6-.66-32.45,15.84"/>
      <rect class="cls-12" x="70.72" y="43.62" width="48.4" height="51.7" rx="3.12" ry="3.12"/>
      <path class="cls-12" d="M65.2,92.66c0,1.72-1.4,3.12-3.12,3.12,0,0-14.82,1.07-22.16,11.71v-51.7c7.89-10.7,22.16-11.71,22.16-11.71,1.72,0,3.12,1.4,3.12,3.12v45.46Z"/>
      <rect class="cls-12" x="124.26" y="43.62" width="48.4" height="51.7" rx="3.12" ry="3.12"/>
      <rect class="cls-14" x=".14" y=".24" width="250.8" height="142.27"/>
    </g>
    <text class="cls-6" transform="translate(59.17 25.16)"><tspan x="0" y="0">Right Edge First</tspan></text>
    <text class="cls-7" transform="translate(129.04 62.39)"><tspan class="cls-4" x="0" y="0">PR</tspan><tspan class="cls-13" x="12.25" y="0">I</tspan><tspan class="cls-16" x="14.25" y="0">NTIN</tspan><tspan x="34.34" y="0">G</tspan></text>
    <text class="cls-7" transform="translate(134.23 72.28)"><tspan class="cls-16" x="0" y="0">READ</tspan><tspan class="cls-21" x="24.49" y="0">S</tspan></text>
    <text class="cls-7" transform="translate(128.06 82.18)"><tspan class="cls-16" x="0" y="0">THIS</tspan><tspan class="cls-13" x="19.55" y="0"> </tspan><tspan class="cls-2" x="21.55" y="0">W</tspan><tspan class="cls-18" x="29.77" y="0">A</tspan><tspan class="cls-21" x="34.65" y="0">Y</tspan></text>
    <text class="cls-7" transform="translate(75.07 62.54)"><tspan class="cls-4" x="0" y="0">P</tspan><tspan class="cls-5" x="5.85" y="0">RI</tspan><tspan class="cls-16" x="14.24" y="0">NT</tspan><tspan class="cls-13" x="25.93" y="0">I</tspan><tspan class="cls-17" x="27.93" y="0">N</tspan><tspan x="34.32" y="0">G</tspan></text>
    <text class="cls-7" transform="translate(80.26 72.43)"><tspan class="cls-16" x="0" y="0">READ</tspan><tspan class="cls-21" x="24.49" y="0">S</tspan></text>
    <text class="cls-7" transform="translate(74.08 82.33)"><tspan class="cls-16" x="0" y="0">THIS</tspan><tspan class="cls-13" x="19.55" y="0"> </tspan><tspan class="cls-2" x="21.55" y="0">W</tspan><tspan class="cls-18" x="29.77" y="0">A</tspan><tspan class="cls-21" x="34.65" y="0">Y</tspan></text>
    <g>
      <path class="cls-9" d="M41.82,66.16c-.53.47-.81.74-1.53,1.42v-1.08c1.97-1.88,2.16-2.11,3.69-3.08,0,.43,0,.65,0,1.08-.57.37-.8.53-1.29.92-.02,2.33-.02,3.49-.04,5.79-.34.29-.51.44-.87.77.01-2.32.02-3.49.03-5.83"/>
      <path class="cls-9" d="M44,63.41c.4-.25.61-.38,1.12-.68,0,2.75,0,4.1,0,6.79-.52.3-.74.43-1.15.7.01-2.7.02-4.06.03-6.81"/>
      <path class="cls-9" d="M45.77,62.37c.67-.36,1.02-.53,1.74-.87,1.11,1.54,1.69,2.3,2.81,3.84,0,0,.01,0,.02,0,0-2.02,0-3.04,0-5.09.56-.25.84-.37,1.38-.62,0,2.75,0,4.11,0,6.82-.69.31-1.05.46-1.78.77-1.13-1.53-1.71-2.29-2.81-3.8h-.02c0,2.05,0,3.06,0,5.07-.55.26-.82.4-1.34.68,0-2.68,0-4.03,0-6.79"/>
      <path class="cls-9" d="M57.74,58.71c-.58-.09-1.29,0-1.82.16-1.57.49-2.35,1.94-2.35,3.35,0,1.39.79,2.1,2.19,1.65.36-.11.65-.24.89-.37,0-.72,0-1.08,0-1.8-.59.17-.87.26-1.42.44,0-.43,0-.65,0-1.08,1.05-.36,1.58-.5,2.83-.83,0,1.49,0,2.23-.01,3.73-.82.41-1.58.78-2.29,1-2.12.66-3.58.3-3.59-2.01,0-2.34,1.32-4.39,3.58-5.11.78-.25,1.43-.32,2.08-.32-.04.48-.06.72-.1,1.19"/>
      <path class="cls-9" d="M42.23,74.57c.39-.36.57-.52.97-.84.68,2.15,1.1,3.16,2.14,5.25-.59.33-.88.52-1.35.86-.18-.48-.26-.73-.42-1.22-.78.62-1.06.92-1.78,1.64-.16.79-.24,1.18-.4,1.98-.39.39-.59.6-1.08,1.04.91-3.59,1.24-5.35,1.93-8.71M42.69,75.52s0,0-.01,0c-.26,1.34-.38,2.03-.64,3.4.5-.49.73-.72,1.27-1.16-.26-.9-.38-1.35-.62-2.26"/>
      <path class="cls-9" d="M45.48,72.24c.73-.4,1.12-.6,1.91-.97,2.22-1.04,4.23-1.14,4.24,1.54s-2.02,4.12-4.24,5.14c-.79.36-1.18.55-1.91.95v-6.66M46.86,77.15c.32-.15.48-.23.81-.37,1.22-.55,2.43-1.87,2.43-3.33,0-1.46-1.21-1.8-2.43-1.24-.32.15-.49.23-.81.38v4.57"/>
      <path class="cls-9" d="M55.66,69.14c-.41-.06-.85-.03-1.29.13-.43.16-1.01.59-1.01,1.33,0,1.18,2.8-.26,2.8,2.05,0,1.51-1.07,2.36-2.37,2.82-.7.25-1.05.29-1.75.4.05-.51.08-.77.13-1.28.49.06,1.03,0,1.54-.18.49-.18,1.12-.65,1.12-1.26,0-1.3-2.9.33-2.91-1.9,0-1.51,1.21-2.61,2.33-3.02.55-.2,1.05-.29,1.53-.26-.05.47-.07.7-.12,1.17"/>
      <path class="cls-9" d="M40.31,86.29c.48-.44.69-.65,1.07-1.05.33,1.86.48,2.79.78,4.67,0,0,0,0,.01-.01.3-2.52.45-3.77.77-6.24.48-.45.73-.67,1.35-1.1.4,1.87.65,2.79,1.12,4.72h.02c.5-2.47.76-3.68,1.29-6.08.55-.27.83-.39,1.41-.64-.77,3.02-1.15,4.54-1.87,7.66-.71.36-1.09.55-1.73.97-.44-1.91-.63-2.84-.97-4.72,0,0,0,0-.02.01-.36,2.46-.53,3.71-.85,6.25-.45.46-.65.7-1.1,1.18-.45-2.28-.67-3.42-1.28-5.62"/>
      <path class="cls-9" d="M50.02,79.77c.67-.27,1.01-.39,1.66-.65,1.14,2.28,1.71,3.45,2.68,5.9-.55.17-.83.26-1.45.48-.24-.55-.38-.82-.62-1.36-1.16.42-1.78.64-2.98,1.13-.26.73-.39,1.1-.65,1.84-.61.26-.92.39-1.51.67,1.12-3.27,1.71-4.85,2.87-8.01M50.84,80.81s-.01,0-.02,0c-.43,1.28-.64,1.93-1.07,3.22.87-.34,1.31-.51,2.15-.82-.42-.97-.63-1.46-1.05-2.41"/>
      <path class="cls-9" d="M55.25,82.04c-.9-1.41-1.32-2.11-2.34-3.38.65-.24.94-.34,1.52-.53.59.96.87,1.46,1.47,2.46.61-1.32.92-1.97,1.63-3.29.62-.14.96-.21,1.72-.37-1.28,1.94-1.8,2.89-2.74,4.78,0,1.09,0,1.64,0,2.73-.53.13-.77.19-1.26.33,0-1.09,0-1.63,0-2.72"/>
    </g>
  </g>
</svg>