<?xml version="1.0" encoding="UTF-8"?>
<svg id="Layer_2" data-name="Layer 2" xmlns="http://www.w3.org/2000/svg" viewBox="0 0 251.08 142.55">
  <defs>
    <style>
      .cls-1 {
        letter-spacing: -.05em;
      }

      .cls-2 {
        letter-spacing: -.11em;
      }

      .cls-3 {
        fill: #707173;
      }

      .cls-4 {
        letter-spacing: -.07em;
      }

      .cls-5 {
        letter-spacing: -.07em;
      }

      .cls-6 {
        letter-spacing: -.05em;
      }

      .cls-7 {
        font-size: 20.96px;
      }

      .cls-7, .cls-8, .cls-9 {
        font-family: ArialMT, Arial;
      }

      .cls-7, .cls-8, .cls-10 {
        fill: #2b4381;
      }

      .cls-11 {
        fill: #e6e7e7;
      }

      .cls-12 {
        fill: #ff6d2d;
      }

      .cls-13, .cls-9 {
        fill: #fff;
      }

      .cls-14 {
        letter-spacing: -.08em;
      }

      .cls-15 {
        stroke: #2b4381;
        stroke-width: .28px;
      }

      .cls-15, .cls-16 {
        fill: none;
      }

      .cls-17 {
        letter-spacing: -.07em;
      }

      .cls-8 {
        font-size: 9.87px;
      }

      .cls-18 {
        letter-spacing: -.05em;
      }

      .cls-19 {
        letter-spacing: -.07em;
      }

      .cls-16 {
        stroke: #ff6d2d;
        stroke-width: 5.67px;
      }

      .cls-20 {
        letter-spacing: -.17em;
      }

      .cls-9 {
        font-size: 11px;
        letter-spacing: -.05em;
      }

      .cls-21 {
        fill: #b4b4b5;
      }

      .cls-22 {
        fill: #d5e7f0;
      }

      .cls-23 {
        letter-spacing: 0em;
      }
    </style>
  </defs>
  <g id="Layer_1-2" data-name="Layer 1">
    <rect class="cls-10" x="180.89" y="126.64" width="70.05" height="15.77"/>
    <rect class="cls-10" x=".12" y=".12" width="33.38" height="30.85"/>
    <polygon class="cls-13" points="22.22 8.24 17.73 27.73 12.72 27.73 17.21 8.24 12.93 8.24 12.93 4.51 22.22 4.51 22.22 8.24"/>
    <rect class="cls-15" x=".14" y=".14" width="250.8" height="142.27"/>
    <text class="cls-7" transform="translate(59.17 25.07)"><tspan class="cls-6" x="0" y="0">Righ</tspan><tspan class="cls-18" x="38.92" y="0">t</tspan><tspan class="cls-6" x="43.72" y="0" xml:space="preserve"> Ed</tspan><tspan class="cls-18" x="72.04" y="0">g</tspan><tspan class="cls-1" x="82.67" y="0">e Fi</tspan><tspan class="cls-18" x="113.42" y="0">rs</tspan><tspan x="128.83" y="0">t</tspan></text>
    <g>
      <path class="cls-11" d="M174.49,70.58h-72.5c0-7.89,0-13.94,0-14.9,0-8.66-13.48-15.67-30.12-15.67s-30.12,7.02-30.12,15.67v60.09s.02.12.08.33c.63,4.89,5.57,9.17,12.87,11.82.03.01.06.02.1.04.01,0,.02,0,.03.01.5.18,1.01.35,1.53.52.29.09.57.17.85.26.15.04.29.09.44.13,4.9,1.39,9.44,1.76,12.34,1.82.62.02,1.25.03,1.88.03,1.05,0,2.08-.03,3.11-.08h99.51v-60.06Z"/>
      <line class="cls-16" x1="150.25" y1="95.66" x2="195.48" y2="95.66"/>
      <polygon class="cls-12" points="191.84 108.03 213.38 95.59 191.84 83.16 191.84 108.03"/>
      <path class="cls-22" d="M53.15,122.7c-12.08-4.24-13.45-12.19-13.45-12.19v-33.09s8.43-12.93,34.83-12.1h102.12v60.06h-104.5s-9.3.71-19-2.68"/>
      <rect class="cls-13" x="70.49" y="69.38" width="48.4" height="51.7" rx="3.12" ry="3.12"/>
      <rect class="cls-13" x="124.03" y="69.38" width="48.4" height="51.7" rx="3.12" ry="3.12"/>
    </g>
    <text class="cls-8" transform="translate(128.49 90.16)"><tspan class="cls-4" x="0" y="0">PR</tspan><tspan class="cls-14" x="12.25" y="0">I</tspan><tspan class="cls-17" x="14.25" y="0">NTIN</tspan><tspan x="34.34" y="0">G</tspan></text>
    <text class="cls-8" transform="translate(133.68 100.06)"><tspan class="cls-17" x="0" y="0">READ</tspan><tspan class="cls-23" x="24.49" y="0">S</tspan></text>
    <text class="cls-8" transform="translate(127.51 109.96)"><tspan class="cls-17" x="0" y="0">THIS</tspan><tspan class="cls-14" x="19.55" y="0"> </tspan><tspan class="cls-2" x="21.55" y="0">W</tspan><tspan class="cls-20" x="29.77" y="0">A</tspan><tspan class="cls-23" x="34.65" y="0">Y</tspan></text>
    <text class="cls-8" transform="translate(74.52 90.31)"><tspan class="cls-4" x="0" y="0">P</tspan><tspan class="cls-5" x="5.85" y="0">RI</tspan><tspan class="cls-17" x="14.24" y="0">NT</tspan><tspan class="cls-14" x="25.93" y="0">I</tspan><tspan class="cls-19" x="27.93" y="0">N</tspan><tspan x="34.32" y="0">G</tspan></text>
    <text class="cls-8" transform="translate(79.71 100.21)"><tspan class="cls-17" x="0" y="0">READ</tspan><tspan class="cls-23" x="24.49" y="0">S</tspan></text>
    <text class="cls-8" transform="translate(73.53 110.1)"><tspan class="cls-17" x="0" y="0">THIS</tspan><tspan class="cls-14" x="19.55" y="0"> </tspan><tspan class="cls-2" x="21.55" y="0">W</tspan><tspan class="cls-20" x="29.77" y="0">A</tspan><tspan class="cls-23" x="34.65" y="0">Y</tspan></text>
    <g>
      <path class="cls-22" d="M101.84,50.42c0,3.09,0,59.36,0,59.36h-62.14v-59.36c0-8.66,13.91-15.68,31.08-15.68s31.07,7.02,31.07,15.68"/>
      <path class="cls-21" d="M101.84,109.79c0,8.66-13.91,15.67-31.07,15.67s-31.08-7.02-31.08-15.67,13.91-15.67,31.08-15.67,31.07,7.02,31.07,15.67"/>
      <path class="cls-3" d="M80.31,110.7c0,2.58-4.43,4.67-9.9,4.67s-9.9-2.09-9.9-4.67,4.43-4.67,9.9-4.67,9.9,2.09,9.9,4.67"/>
    </g>
    <text class="cls-9" transform="translate(182.35 138.67)"><tspan x="0" y="0">Roll Direction 7</tspan></text>
  </g>
</svg>