<?xml version="1.0" encoding="UTF-8"?>
<svg id="Layer_2" data-name="Layer 2" xmlns="http://www.w3.org/2000/svg" viewBox="0 0 251.08 142.77">
  <defs>
    <style>
      .cls-1 {
        fill: #8c8d8e;
      }

      .cls-2 {
        fill: #707173;
      }

      .cls-3 {
        letter-spacing: -.05em;
      }

      .cls-4 {
        fill: #e6e7e7;
      }

      .cls-5 {
        fill: #ff6d2d;
      }

      .cls-6, .cls-7 {
        fill: #fff;
      }

      .cls-8 {
        letter-spacing: -.08em;
      }

      .cls-9 {
        stroke: #2b4381;
        stroke-width: .28px;
      }

      .cls-9, .cls-10 {
        fill: none;
      }

      .cls-11 {
        letter-spacing: -.07em;
      }

      .cls-12 {
        font-size: 9.87px;
      }

      .cls-12, .cls-7, .cls-13 {
        font-family: ArialMT, Arial;
      }

      .cls-12, .cls-13, .cls-14 {
        fill: #2b4381;
      }

      .cls-15 {
        letter-spacing: -.11em;
      }

      .cls-16 {
        letter-spacing: -.05em;
      }

      .cls-17 {
        letter-spacing: -.05em;
      }

      .cls-10 {
        stroke: #ff6d2d;
        stroke-width: 5.67px;
      }

      .cls-18 {
        letter-spacing: -.17em;
      }

      .cls-7 {
        font-size: 11px;
        letter-spacing: -.05em;
      }

      .cls-19 {
        fill: #b4b4b5;
      }

      .cls-13 {
        font-size: 23.1px;
      }

      .cls-20 {
        letter-spacing: 0em;
      }

      .cls-21 {
        fill: #d5e7f0;
      }

      .cls-22 {
        letter-spacing: -.07em;
      }

      .cls-23 {
        letter-spacing: 0em;
      }
    </style>
  </defs>
  <g id="Layer_1-2" data-name="Layer 1">
    <rect class="cls-14" x="180.8" y="127.01" width="70.05" height="15.77"/>
    <g>
      <rect class="cls-14" x=".03" y=".1" width="32.09" height="32.97"/>
      <path class="cls-6" d="M10.73,9.18c0-2.75.15-3.42.82-4.24.75-.86,1.86-1.15,4.5-1.12h1.97c2.46,0,3.39.3,4.06,1.38.56.85.67,1.49.67,4.09v3.24c0,1.82-.11,2.16-1.38,4.35l-4.53,7.77h5.91v4.13h-12.01v-4.02l5.99-10.27c.56-.97.74-1.64.74-2.68v-2.08c0-1.6-.11-1.86-.67-1.86-.71,0-.86.33-.86,1.86v2.87h-5.21v-3.42Z"/>
    </g>
    <text class="cls-7" transform="translate(183.22 138.67)"><tspan x="0" y="0">Roll Direction 2</tspan></text>
    <g>
      <line class="cls-10" x1="150.3" y1="69.81" x2="195.52" y2="69.81"/>
      <polygon class="cls-5" points="191.88 82.18 213.42 69.74 191.88 57.3 191.88 82.18"/>
      <path class="cls-4" d="M175.59,44.22h-98.84c-25.55-.83-33.71,12.1-33.71,12.1v63.8c0,8.66,13.46,15.67,30.08,15.67s30.08-7.02,30.08-15.67v-15.84h72.4v-60.06Z"/>
      <path class="cls-1" d="M101.89,115.37v-17.05l-32.99,1.41s29.14-.86,32.99,15.64"/>
      <path class="cls-19" d="M101.89,115.37c0,8.66-13.91,15.68-31.07,15.68s-31.08-7.02-31.08-15.68,13.91-15.67,31.08-15.67,31.07,7.02,31.07,15.67"/>
      <path class="cls-2" d="M80.63,116.28c0,2.58-4.43,4.67-9.9,4.67s-9.9-2.09-9.9-4.67,4.43-4.67,9.9-4.67,9.9,2.09,9.9,4.67"/>
      <path class="cls-21" d="M39.74,115.37v-63.8s8.43-12.93,34.83-12.1h102.12v60.06h-104.5s-28.6-.66-32.45,15.84"/>
      <rect class="cls-6" x="70.54" y="43.53" width="48.4" height="51.7" rx="3.12" ry="3.12"/>
      <path class="cls-6" d="M65.01,92.57c0,1.72-1.4,3.12-3.12,3.12,0,0-14.82,1.07-22.15,11.71v-51.7c7.89-10.7,22.15-11.71,22.15-11.71,1.72,0,3.12,1.4,3.12,3.12v45.46Z"/>
      <rect class="cls-6" x="124.07" y="43.53" width="48.4" height="51.7" rx="3.12" ry="3.12"/>
      <rect class="cls-9" x=".14" y=".14" width="250.8" height="142.27"/>
    </g>
    <text class="cls-13" transform="translate(80.88 26.65)"><tspan class="cls-3" x="0" y="0">F</tspan><tspan class="cls-17" x="12.98" y="0">o</tspan><tspan class="cls-3" x="24.67" y="0">ot</tspan><tspan class="cls-16" x="41.67" y="0"> </tspan><tspan class="cls-3" x="46.93" y="0">F</tspan><tspan class="cls-17" x="59.91" y="0">i</tspan><tspan class="cls-3" x="63.89" y="0">rs</tspan><tspan x="80.87" y="0">t</tspan></text>
    <text class="cls-12" transform="translate(88.14 88.54) rotate(-90)"><tspan class="cls-8" x="0" y="0">PRI</tspan><tspan class="cls-11" x="14.23" y="0">N</tspan><tspan class="cls-22" x="20.62" y="0">TI</tspan><tspan class="cls-11" x="27.91" y="0">N</tspan><tspan x="34.3" y="0">G</tspan></text>
    <text class="cls-12" transform="translate(98.04 83.35) rotate(-90)"><tspan class="cls-22" x="0" y="0">RE</tspan><tspan class="cls-11" x="12.23" y="0">AD</tspan><tspan x="24.47" y="0">S</tspan></text>
    <text class="cls-12" transform="translate(107.93 89.53) rotate(-90)"><tspan class="cls-22" x="0" y="0">T</tspan><tspan class="cls-11" x="5.29" y="0">H</tspan><tspan class="cls-8" x="11.68" y="0">IS </tspan><tspan class="cls-15" x="21.52" y="0">W</tspan><tspan class="cls-18" x="29.73" y="0">A</tspan><tspan class="cls-23" x="34.61" y="0">Y</tspan></text>
    <g>
      <path class="cls-14" d="M44.12,93.36v-1.51c0-1.5-.1-3.16,1.86-4.54.83-.58,1.52-.51,1.63.31,0,0,.01,0,.02-.01.03-.41.41-.9.71-1.24,1.05-1.17,1.48-1.63,2.59-2.73,0,.64,0,.95,0,1.58-.89.85-1.26,1.22-2.07,2.1-.49.52-.69.85-.69,1.45v.46c1.13-.78,1.59-1.02,2.78-1.71,0,.57,0,.85,0,1.41-2.87,1.65-4.2,2.98-6.83,4.44M47.08,89.98v-.47c0-.7-.1-1.42-.98-.8-.85.6-.91,1.42-.91,2.12v.47c.75-.49,1.14-.78,1.9-1.32"/>
      <path class="cls-14" d="M44.12,87.86v-4.16c.41-.27.63-.42,1.07-.72v2.77c.69-.47,1.04-.72,1.74-1.22,0-1.02,0-1.52,0-2.54.45-.32.67-.47,1.1-.77,0,1.02,0,1.53,0,2.54.77-.53,1.09-.74,1.83-1.18,0-1.12,0-1.68,0-2.8.41-.25.63-.38,1.08-.63,0,1.69,0,2.54.01,4.23-2.85,1.64-4.19,2.89-6.82,4.49"/>
      <path class="cls-14" d="M44.12,80.99v-1.6c2.63-2.95,3.97-4.69,6.78-7.4,0,.63,0,.95,0,1.59-.65.61-.95.91-1.51,1.52v2.9c.57-.11.87-.16,1.52-.28,0,.6,0,.89,0,1.49-2.84.51-4.17,1.09-6.81,1.8M45.49,79.24v.02c1.16-.42,1.78-.67,2.89-1.01,0-.83,0-1.25,0-2.09-1.11,1.17-1.73,1.84-2.89,3.08"/>
      <path class="cls-14" d="M44.12,76.47v-1.93c0-2.16.73-4.72,3.5-6.65,2.77-1.93,3.28-.2,3.28,1.99,0,.78,0,1.17,0,1.95-2.82,1.59-4.16,2.71-6.78,4.64M49.84,71.02v-.8c0-1.2-.71-1.91-2.23-.85-1.52,1.06-2.43,2.9-2.43,4.09v.79c1.91-1.41,2.91-2.17,4.65-3.24"/>
      <path class="cls-14" d="M45.37,65.18c-.19.59-.3,1.17-.3,1.67s.2.95.98.38c1.23-.91.89-3.76,3.01-5.2,1.38-.94,1.94.02,1.94,1.45,0,.77-.1,1.17-.26,1.97-.5.23-.74.34-1.17.58.22-.63.38-1.29.38-1.84,0-.54-.22-1.12-.79-.74-1.19.81-.69,3.5-3.04,5.23-1.59,1.16-2.11.4-2.11-.84,0-.6.07-1.22.24-1.87.44-.31.67-.47,1.13-.77"/>
      <path class="cls-14" d="M55.19,91.42c0,.79,0,1.19,0,1.98-.4.22-.62.33-1.05.58,0-2.13,0-3.21,0-5.37.44-.24.66-.36,1.06-.57v1.99c2.17-1.15,3.55-1.53,5.73-2.08v1.39c-2.18.54-3.57.93-5.73,2.08"/>
      <path class="cls-14" d="M54.13,88.47c0-.56,0-.84,0-1.4,1.13-.62,1.6-.88,2.71-1.34,0-1.12,0-1.68.01-2.81-1.12.46-1.59.72-2.73,1.33,0-.56,0-.85,0-1.41,2.82-1.5,4.21-1.96,6.8-2.64v1.41c-1.13.3-1.76.47-2.97.9,0,1.13,0,1.69-.01,2.81,1.22-.43,1.85-.6,2.99-.9v1.4c-2.59.66-3.99,1.12-6.79,2.65"/>
      <path class="cls-14" d="M54.12,82.08c0-.57,0-.85,0-1.42,2.83-1.48,4.22-1.94,6.8-2.63v1.41c-2.59.69-3.98,1.15-6.8,2.64"/>
      <path class="cls-14" d="M55.36,75.47c-.17.53-.28,1.08-.28,1.58s.18,1,.94.66c1.19-.54.74-3.5,3.02-4.23,1.49-.48,2,.64,2,2.07,0,.77-.09,1.14-.25,1.88-.47.07-.71.12-1.2.21.25-.56.42-1.16.42-1.72s-.25-1.18-.87-.99c-1.3.41-.8,3.21-3.07,4.24-1.53.69-2.07-.19-2.07-1.44,0-.61.08-1.22.25-1.82.47-.18.69-.27,1.11-.42"/>
      <path class="cls-14" d="M54.11,73.68c0-.6,0-.9,0-1.49,2.28-1.66,3.37-2.36,5.5-3.54v-.02c-2.13.17-3.21.38-5.5,1.01,0-.77,0-1.16,0-1.93,2.29-1.61,3.39-2.3,5.51-3.45v-.02c-2.12.13-3.21.32-5.52.88,0-.55,0-.83,0-1.38,2.89-.62,4.25-.74,6.83-.76v1.82c-2.06,1.1-3.17,1.66-5.45,3.23,0,0,0,.01,0,.02,2.28-.56,3.39-.61,5.45-.7v1.83c-2.58,1.48-3.96,2.31-6.81,4.49"/>
      <path class="cls-14" d="M54.09,61.93c0-.64,0-.96,0-1.59,2.89-2.44,4.26-3.45,6.83-5.33v1.55c-.59.42-.88.63-1.49,1.06,0,1.13,0,1.7,0,2.84.61.05.9.08,1.49.16v1.46c-2.58-.34-3.94-.4-6.83-.15M55.47,60.53v.02c1.22-.14,1.79-.16,2.9-.14,0-.82,0-1.23,0-2.05-1.12.79-1.69,1.21-2.91,2.16"/>
      <path class="cls-14" d="M58.33,54.84c-1.63,1.58-2.5,2.47-4.25,4.3,0-.66,0-.99,0-1.64,1.22-1.21,1.8-1.81,2.99-2.92-1.18-.21-1.77-.28-2.99-.39,0-.59,0-.88,0-1.46,1.77.2,2.64.31,4.26.74,1.06-.37,1.57-.52,2.58-.84v1.39c-1.02.31-1.52.46-2.59.83"/>
    </g>
    <text class="cls-12" transform="translate(141.65 88.7) rotate(-90)"><tspan class="cls-8" x="0" y="0">PR</tspan><tspan class="cls-11" x="12.23" y="0">IN</tspan><tspan class="cls-22" x="20.63" y="0">TI</tspan><tspan class="cls-11" x="27.92" y="0">N</tspan><tspan class="cls-20" x="34.31" y="0">G</tspan></text>
    <text class="cls-12" transform="translate(151.54 83.51) rotate(-90)"><tspan class="cls-22" x="0" y="0">RE</tspan><tspan class="cls-11" x="12.23" y="0">AD</tspan><tspan x="24.47" y="0">S</tspan></text>
    <text class="cls-12" transform="translate(161.44 89.69) rotate(-90)"><tspan class="cls-22" x="0" y="0">T</tspan><tspan class="cls-11" x="5.29" y="0">H</tspan><tspan class="cls-8" x="11.68" y="0">IS </tspan><tspan class="cls-15" x="21.52" y="0">W</tspan><tspan class="cls-18" x="29.73" y="0">A</tspan><tspan class="cls-23" x="34.61" y="0">Y</tspan></text>
  </g>
</svg>