<?xml version="1.0" encoding="UTF-8"?>
<svg id="Layer_2" data-name="Layer 2" xmlns="http://www.w3.org/2000/svg" viewBox="0 0 251.16 142.56">
  <defs>
    <style>
      .cls-1 {
        fill: #707173;
      }

      .cls-2 {
        letter-spacing: -.07em;
      }

      .cls-3 {
        letter-spacing: -.07em;
      }

      .cls-4 {
        letter-spacing: -.05em;
      }

      .cls-5 {
        font-size: 20.96px;
      }

      .cls-5, .cls-6, .cls-7 {
        font-family: ArialMT, Arial;
      }

      .cls-5, .cls-6, .cls-8 {
        fill: #2b4381;
      }

      .cls-9 {
        fill: #e6e7e7;
      }

      .cls-10 {
        fill: #ff6d2d;
      }

      .cls-11, .cls-7 {
        fill: #fff;
      }

      .cls-12 {
        letter-spacing: -.08em;
      }

      .cls-13 {
        stroke: #2b4381;
        stroke-width: .28px;
      }

      .cls-13, .cls-14 {
        fill: none;
      }

      .cls-6 {
        font-size: 9.87px;
      }

      .cls-15 {
        letter-spacing: -.05em;
      }

      .cls-16 {
        letter-spacing: -.17em;
      }

      .cls-17 {
        letter-spacing: -.11em;
      }

      .cls-18 {
        letter-spacing: -.07em;
      }

      .cls-14 {
        stroke: #ff6d2d;
        stroke-width: 5.67px;
      }

      .cls-19 {
        letter-spacing: -.05em;
      }

      .cls-7 {
        font-size: 11px;
        letter-spacing: -.05em;
      }

      .cls-20 {
        fill: #b4b4b5;
      }

      .cls-21 {
        fill: #d5e7f0;
      }
    </style>
  </defs>
  <g id="Layer_1-2" data-name="Layer 1">
    <rect class="cls-8" x="180.88" y="126.65" width="70.05" height="15.77"/>
    <rect class="cls-8" width="32.24" height="32.24"/>
    <path class="cls-11" d="M21.6,16.71c.33.55.48,1.09.55,2.08.04.4.04.72.04,2.91v2.15c0,3.89-1.02,4.84-5.1,4.77h-2.47c-1.96-.04-2.87-.4-3.56-1.46-.48-.72-.59-1.49-.59-3.89v-2.04c0-2.73.11-3.64.51-4.36.4-.7.95-1.13,1.71-1.38-1.6-.58-2.22-1.78-2.18-4.29v-1.75c.04-3.13.14-3.64.98-4.4.84-.77,1.64-.91,4.99-.91,3.6,0,4.33.18,5.09,1.35.51.8.66,1.57.66,3.86,0,3.27-.07,3.89-.54,4.77-.37.69-.73.98-1.75,1.38.83.29,1.27.62,1.67,1.24M15.57,11.94c0,.91.25,1.31.76,1.31s.73-.4.73-1.31v-2.66c0-.8-.22-1.16-.73-1.16s-.76.36-.76,1.16v2.66ZM15.57,22.89c0,1.38.15,1.68.76,1.68.51,0,.69-.29.73-1.13v-4.65c0-.73-.25-1.06-.73-1.06-.29,0-.54.15-.62.4-.11.26-.15.33-.15,1.35v3.42Z"/>
    <text class="cls-5" transform="translate(59.81 25.08)"><tspan class="cls-4" x="0" y="0">L</tspan><tspan class="cls-15" x="10.61" y="0">eft</tspan><tspan class="cls-19" x="30.83" y="0" xml:space="preserve"> Edge F</tspan><tspan class="cls-15" x="96.91" y="0">irs</tspan><tspan x="115.94" y="0">t</tspan></text>
    <text class="cls-7" transform="translate(182.63 138.68)"><tspan x="0" y="0">Roll Direction 8</tspan></text>
    <rect class="cls-13" x=".21" y=".15" width="250.8" height="142.27"/>
    <g>
      <path class="cls-9" d="M174.91,70.59h-72.5c0-7.89,0-13.94,0-14.9,0-8.66-13.48-15.67-30.12-15.67s-30.12,7.02-30.12,15.67v60.09s.02.12.08.33c.63,4.89,5.57,9.17,12.87,11.82.03.01.06.02.09.04.01,0,.02,0,.03.01.5.18,1.01.35,1.53.52.29.09.57.17.86.26.15.04.29.09.44.13,4.9,1.39,9.45,1.76,12.34,1.82.62.02,1.25.03,1.88.03,1.05,0,2.09-.03,3.11-.08h99.51v-60.06Z"/>
      <line class="cls-14" x1="150.67" y1="95.67" x2="195.89" y2="95.67"/>
      <polygon class="cls-10" points="192.25 108.04 213.79 95.6 192.25 83.16 192.25 108.04"/>
      <path class="cls-21" d="M53.56,122.7c-12.08-4.24-13.45-12.19-13.45-12.19v-33.09s8.43-12.93,34.83-12.1h102.12v60.06h-104.5s-9.3.71-19-2.68"/>
      <path class="cls-11" d="M74.03,69.39h42.16c1.72,0,3.12,1.4,3.12,3.12v45.46c0,1.72-1.4,3.12-3.12,3.12h-42.16c-1.72,0-3.12-1.4-3.12-3.12v-45.46c0-1.72,1.4-3.12,3.12-3.12Z"/>
      <path class="cls-11" d="M127.56,69.39h42.16c1.72,0,3.12,1.4,3.12,3.12v45.46c0,1.72-1.4,3.12-3.12,3.12h-42.17c-1.72,0-3.12-1.4-3.12-3.12v-45.46c0-1.72,1.4-3.12,3.12-3.12Z"/>
    </g>
    <text class="cls-6" transform="translate(114.23 101.89) rotate(-180)"><tspan class="cls-3" x="0" y="0">P</tspan><tspan class="cls-2" x="5.84" y="0">R</tspan><tspan class="cls-12" x="12.24" y="0">I</tspan><tspan class="cls-2" x="14.24" y="0">N</tspan><tspan class="cls-12" x="20.63" y="0">TI</tspan><tspan class="cls-2" x="27.92" y="0">N</tspan><tspan x="34.31" y="0">G</tspan></text>
    <text class="cls-6" transform="translate(109.04 92) rotate(-180)"><tspan class="cls-12" x="0" y="0">R</tspan><tspan class="cls-18" x="6.38" y="0">EAD</tspan><tspan x="24.48" y="0">S</tspan></text>
    <text class="cls-6" transform="translate(115.21 82.1) rotate(-180)"><tspan class="cls-12" x="0" y="0">T</tspan><tspan class="cls-2" x="5.29" y="0">H</tspan><tspan class="cls-3" x="11.68" y="0">I</tspan><tspan class="cls-2" x="13.68" y="0">S</tspan><tspan class="cls-12" x="19.53" y="0"> </tspan><tspan class="cls-17" x="21.53" y="0">W</tspan><tspan class="cls-16" x="29.75" y="0">A</tspan><tspan x="34.63" y="0">Y</tspan></text>
    <text class="cls-6" transform="translate(167.74 102.06) rotate(-180)"><tspan class="cls-3" x="0" y="0">P</tspan><tspan class="cls-2" x="5.84" y="0">R</tspan><tspan class="cls-12" x="12.24" y="0">I</tspan><tspan class="cls-2" x="14.24" y="0">N</tspan><tspan class="cls-12" x="20.63" y="0">TI</tspan><tspan class="cls-2" x="27.92" y="0">N</tspan><tspan x="34.31" y="0">G</tspan></text>
    <text class="cls-6" transform="translate(162.54 92.16) rotate(-180)"><tspan class="cls-12" x="0" y="0">R</tspan><tspan class="cls-18" x="6.38" y="0">EAD</tspan><tspan x="24.48" y="0">S</tspan></text>
    <text class="cls-6" transform="translate(168.72 82.27) rotate(-180)"><tspan class="cls-12" x="0" y="0">T</tspan><tspan class="cls-2" x="5.29" y="0">H</tspan><tspan class="cls-3" x="11.68" y="0">I</tspan><tspan class="cls-2" x="13.68" y="0">S</tspan><tspan class="cls-12" x="19.53" y="0"> </tspan><tspan class="cls-17" x="21.53" y="0">W</tspan><tspan class="cls-16" x="29.75" y="0">A</tspan><tspan x="34.63" y="0">Y</tspan></text>
    <g>
      <path class="cls-21" d="M102.26,50.43c0,3.09,0,59.36,0,59.36h-62.14v-59.36c0-8.66,13.91-15.68,31.07-15.68s31.08,7.02,31.08,15.68"/>
      <path class="cls-20" d="M102.26,109.79c0,8.66-13.91,15.67-31.08,15.67s-31.07-7.02-31.07-15.67,13.91-15.67,31.07-15.67,31.08,7.02,31.08,15.67"/>
      <path class="cls-1" d="M80.73,110.71c0,2.58-4.43,4.67-9.9,4.67s-9.9-2.09-9.9-4.67,4.43-4.67,9.9-4.67,9.9,2.09,9.9,4.67"/>
    </g>
  </g>
</svg>