<?xml version="1.0" encoding="UTF-8"?>
<svg id="Layer_2" data-name="Layer 2" xmlns="http://www.w3.org/2000/svg" viewBox="0 0 251.08 142.77">
  <defs>
    <style>
      .cls-1 {
        fill: #8c8d8e;
      }

      .cls-2 {
        fill: #707173;
      }

      .cls-3 {
        letter-spacing: -.05em;
      }

      .cls-4 {
        fill: #e6e7e7;
      }

      .cls-5 {
        fill: #ff6d2d;
      }

      .cls-6 {
        letter-spacing: -.05em;
      }

      .cls-7, .cls-8 {
        fill: #fff;
      }

      .cls-9 {
        letter-spacing: -.05em;
      }

      .cls-10 {
        letter-spacing: -.08em;
      }

      .cls-11 {
        stroke: #2b4381;
        stroke-width: .28px;
      }

      .cls-11, .cls-12 {
        fill: none;
      }

      .cls-13 {
        letter-spacing: -.07em;
      }

      .cls-14 {
        font-size: 9.87px;
      }

      .cls-14, .cls-8, .cls-15 {
        font-family: ArialMT, Arial;
      }

      .cls-14, .cls-15, .cls-16 {
        fill: #2b4381;
      }

      .cls-17 {
        letter-spacing: -.11em;
      }

      .cls-18 {
        letter-spacing: -.05em;
      }

      .cls-19 {
        letter-spacing: -.05em;
      }

      .cls-12 {
        stroke: #ff6d2d;
        stroke-width: 5.67px;
      }

      .cls-20 {
        letter-spacing: -.17em;
      }

      .cls-8 {
        font-size: 11px;
      }

      .cls-21 {
        letter-spacing: -.07em;
      }

      .cls-22 {
        fill: #b4b4b5;
      }

      .cls-15 {
        font-size: 23.1px;
      }

      .cls-23 {
        letter-spacing: 0em;
      }

      .cls-24 {
        fill: #d5e7f0;
      }

      .cls-25 {
        letter-spacing: -.07em;
      }

      .cls-26 {
        letter-spacing: 0em;
      }
    </style>
  </defs>
  <g id="Layer_1-2" data-name="Layer 1">
    <rect class="cls-16" x="180.89" y="127.01" width="70.05" height="15.77"/>
    <g>
      <rect class="cls-16" x=".3" y="0" width="33.19" height="34.69"/>
      <path class="cls-7" d="M19.78,29.82h-5.23V12.13h-2.5v-4.07h.26c1.83,0,3.14-1.23,3.25-3.14h4.22v24.9Z"/>
    </g>
    <text class="cls-8" transform="translate(182.86 138.67)"><tspan class="cls-6" x="0" y="0">Ro</tspan><tspan class="cls-18" x="12.96" y="0">ll</tspan><tspan class="cls-6" x="16.77" y="0"> </tspan><tspan class="cls-18" x="19.28" y="0">Di</tspan><tspan class="cls-21" x="28.59" y="0">r</tspan><tspan class="cls-6" x="31.51" y="0">e</tspan><tspan class="cls-18" x="37.08" y="0">c</tspan><tspan class="cls-9" x="42.04" y="0">t</tspan><tspan class="cls-18" x="44.55" y="0">i</tspan><tspan class="cls-6" x="46.45" y="0">on </tspan><tspan x="60.09" y="0">1</tspan></text>
    <g>
      <line class="cls-12" x1="150.48" y1="69.81" x2="195.71" y2="69.81"/>
      <polygon class="cls-5" points="192.07 82.18 213.61 69.74 192.07 57.3 192.07 82.18"/>
      <path class="cls-4" d="M175.77,44.22h-98.84c-25.55-.83-33.71,12.1-33.71,12.1v63.8c0,8.66,13.47,15.67,30.08,15.67s30.08-7.02,30.08-15.67v-15.84h72.4v-60.06Z"/>
      <path class="cls-1" d="M102.07,115.37v-17.05l-32.99,1.41s29.14-.86,32.99,15.64"/>
      <path class="cls-22" d="M102.07,115.37c0,8.66-13.91,15.68-31.08,15.68s-31.07-7.02-31.07-15.68,13.91-15.67,31.07-15.67,31.08,7.02,31.08,15.67"/>
      <path class="cls-2" d="M80.85,116.28c0,2.58-4.43,4.67-9.9,4.67s-9.9-2.09-9.9-4.67,4.43-4.67,9.9-4.67,9.9,2.09,9.9,4.67"/>
      <path class="cls-24" d="M39.92,115.37v-63.8s8.43-12.93,34.83-12.1h102.12v60.06h-104.5s-28.6-.66-32.45,15.84"/>
      <rect class="cls-7" x="70.72" y="43.53" width="48.4" height="51.7" rx="3.12" ry="3.12"/>
      <path class="cls-7" d="M65.2,92.57c0,1.72-1.4,3.12-3.12,3.12,0,0-14.82,1.07-22.16,11.71v-51.7c7.89-10.7,22.16-11.71,22.16-11.71,1.72,0,3.12,1.4,3.12,3.12v45.46Z"/>
      <rect class="cls-7" x="124.26" y="43.53" width="48.4" height="51.7" rx="3.12" ry="3.12"/>
      <rect class="cls-11" x=".14" y=".14" width="250.8" height="142.27"/>
    </g>
    <text class="cls-15" transform="translate(77.02 26.65)"><tspan class="cls-3" x="0" y="0">H</tspan><tspan class="cls-19" x="15.55" y="0">e</tspan><tspan class="cls-3" x="27.24" y="0">a</tspan><tspan class="cls-19" x="38.96" y="0">d Fi</tspan><tspan class="cls-3" x="72.85" y="0">rs</tspan><tspan x="89.82" y="0">t</tspan></text>
    <text class="cls-14" transform="translate(154.66 49.82) rotate(90)"><tspan class="cls-10" x="0" y="0">PRI</tspan><tspan class="cls-13" x="14.23" y="0">N</tspan><tspan class="cls-25" x="20.62" y="0">TI</tspan><tspan class="cls-13" x="27.91" y="0">N</tspan><tspan x="34.3" y="0">G</tspan></text>
    <text class="cls-14" transform="translate(144.77 55.01) rotate(90)"><tspan class="cls-25" x="0" y="0">RE</tspan><tspan class="cls-13" x="12.23" y="0">AD</tspan><tspan x="24.47" y="0">S</tspan></text>
    <text class="cls-14" transform="translate(134.87 48.83) rotate(90)"><tspan class="cls-25" x="0" y="0">T</tspan><tspan class="cls-13" x="5.29" y="0">H</tspan><tspan class="cls-10" x="11.68" y="0">IS </tspan><tspan class="cls-17" x="21.52" y="0">W</tspan><tspan class="cls-20" x="29.73" y="0">A</tspan><tspan class="cls-26" x="34.61" y="0">Y</tspan></text>
    <text class="cls-14" transform="translate(101.32 49.97) rotate(90)"><tspan class="cls-10" x="0" y="0">PR</tspan><tspan class="cls-13" x="12.23" y="0">IN</tspan><tspan class="cls-25" x="20.63" y="0">TI</tspan><tspan class="cls-13" x="27.92" y="0">N</tspan><tspan class="cls-23" x="34.31" y="0">G</tspan></text>
    <text class="cls-14" transform="translate(91.42 55.16) rotate(90)"><tspan class="cls-25" x="0" y="0">RE</tspan><tspan class="cls-13" x="12.23" y="0">AD</tspan><tspan x="24.47" y="0">S</tspan></text>
    <text class="cls-14" transform="translate(81.53 48.98) rotate(90)"><tspan class="cls-25" x="0" y="0">T</tspan><tspan class="cls-13" x="5.29" y="0">H</tspan><tspan class="cls-10" x="11.68" y="0">IS </tspan><tspan class="cls-17" x="21.52" y="0">W</tspan><tspan class="cls-20" x="29.73" y="0">A</tspan><tspan class="cls-26" x="34.61" y="0">Y</tspan></text>
    <g>
      <path class="cls-16" d="M58.52,52.5c0,.7,0,1.05,0,1.75,0,1.5-.94,3.05-2.38,3.45-1.4.38-1.77-.55-1.79-2.04,0-.23,0-.35,0-.59-.86.4-1.41.73-2.57,1.36,0-.56.01-.84.02-1.4,3.04-1.66,2.51-1.66,6.72-2.54M55.2,54.72c0,.19,0,.29,0,.49,0,.69.16,1.25.85,1.06.69-.19,1.05-.87,1.04-1.58,0-.19,0-.29,0-.49-.94.21-1.25.29-1.9.52"/>
      <path class="cls-16" d="M58.52,57.25c0,.6,0,.89,0,1.49,0,1.48-.44,3.34-2.14,3.82-.72.2-1.2-.17-1.3-1.02,0,0-.01,0-.02,0-.02.39-.3.73-.56.98-.9.86-1.61,1.48-2.82,2.59,0-.63,0-.95.02-1.58.96-.86,1.51-1.34,2.31-2.07.48-.43.61-.67.61-1.26,0-.18,0-.27,0-.45-.93.41-1.61.8-2.89,1.49,0-.56,0-.85.02-1.41,3.07-1.67,2.62-1.62,6.78-2.59M55.45,59.44c0,.18,0,.28,0,.46,0,.69.05,1.45.8,1.24.73-.2.87-1.01.86-1.7,0-.18,0-.27,0-.46-.82.2-1.09.27-1.67.46"/>
      <path class="cls-16" d="M58.52,62.55v1.38c-4.09,1.15-3.78,1.09-6.86,2.74,0-.57,0-.85.01-1.42,3.08-1.66,2.74-1.6,6.85-2.7"/>
      <path class="cls-16" d="M58.52,64.6c0,.68,0,1.02,0,1.7-3.04,1.96-2.55,2.19-4.88,4.45,0,0,0,.01,0,.02,2.33-1.18,1.86-.85,4.88-1.82,0,.53,0,.8,0,1.33-4.02,1.34-3.85,1.3-6.92,2.91,0-.7,0-1.04.02-1.74,2.31-2.3,3.07-3.31,4.91-4.92v-.02c-1.85.55-2.58.99-4.88,2.21,0-.54,0-.82.01-1.36,3.08-1.65,2.78-1.59,6.87-2.76"/>
      <path class="cls-16" d="M57.2,72.77c0-.8,0-1.2-.01-1.99.45-.14.7-.23,1.34-.44,0,2.13,0,3.2,0,5.34-.62.24-.87.33-1.31.48,0-.8,0-1.2-.01-1.99-2.37.82-3.04,1.21-5.63,2.55,0-.57,0-.86.01-1.42,2.59-1.35,3.23-1.72,5.61-2.52"/>
      <path class="cls-16" d="M58.53,75.7v1.38c-3.94,1.54-3.91,1.54-6.99,3.11,0-.57,0-.85.01-1.42,3.07-1.57,3.02-1.57,6.97-3.07"/>
      <path class="cls-16" d="M58.53,77.75v1.7c-2.93,2.26-2.19,2.33-4.81,4.74v.02c2.63-1.34,1.91-.85,4.82-2.11v1.32c-3.87,1.72-3.97,1.72-7.05,3.26,0-.69.01-1.03.02-1.72,2.31-2.23,3.45-3.39,5.15-5.12v-.02c-1.72.66-2.83,1.26-5.13,2.42,0-.54,0-.81.01-1.36,3.07-1.56,3.06-1.56,6.99-3.13"/>
      <path class="cls-16" d="M57.08,90.27c.21-.63.33-1.38.32-1.93,0-1.62-.88-2.17-1.98-1.68-1.09.49-2.78,2.24-2.79,3.72,0,.38.05.65.13.85,1.02-.51,1.57-.79,2.23-1.09,0-.59-.01-.88-.02-1.47.39-.18.55-.25.86-.38.01,1.12.02,1.68.04,2.8-1.07.45-2.43,1.14-4.2,2.01-.22-.62-.38-1.3-.38-2.05.03-2.26,2.17-4.98,4.02-5.81,1.88-.84,3.38,0,3.38,2.34,0,.8-.16,1.51-.39,2.21-.6.25-.83.34-1.23.48"/>
      <path class="cls-16" d="M48.38,62.33c0,.6,0,.9,0,1.5.01,1.49-.33,3.46-1.64,4.62-.55.49-.87.25-.93-.58,0,0,0,0,0,0-.01.39-.19.79-.34,1.09-.51,1-.71,1.49-1.48,2.93,0-.64,0-.96,0-1.59.61-1.13.81-1.55,1.22-2.34.24-.48.33-.74.33-1.33,0-.18,0-.27,0-.45-.54.55-.74.78-1.56,1.82,0-.57,0-.85,0-1.42,1.99-2.51,1.53-2.21,4.41-4.26M46.07,65.67c0,.18,0,.27,0,.45,0,.68.01,1.45.58.95.55-.49.68-1.38.67-2.07,0-.18,0-.27,0-.45-.69.59-.86.75-1.25,1.12"/>
      <path class="cls-16" d="M48.43,67.78c.02,1.64.03,2.46.05,4.1-.42.29-.63.45-1.03.77-.02-1.07-.03-1.61-.05-2.69-.62.52-.81.69-1.19,1.06.01.99.02,1.48.03,2.47-.25.24-.35.36-.57.59,0-1-.02-1.5-.03-2.5-.38.4-.54.6-.97,1.14,0,1.12.01,1.68.02,2.8-.24.31-.38.49-.69.89-.01-1.71-.02-2.56-.03-4.25,1.97-2.51,1.66-2.44,4.43-4.39"/>
      <path class="cls-16" d="M48.51,74.55c0,.63.01.94.02,1.57-2.58,2.86-2.51,3.77-4.46,7.5,0-.64,0-.96-.01-1.6.45-.84.62-1.21.95-1.9,0-1.16-.01-1.73-.02-2.89-.33.18-.5.29-.96.62,0-.6,0-.9,0-1.5,1.97-1.42,1.85-1.09,4.49-1.81M47.25,76.29v-.02c-.92.37-1.15.43-1.71.7,0,.82.01,1.23.02,2.06.56-1.11.79-1.57,1.7-2.73"/>
      <path class="cls-16" d="M48.57,79c0,.76.01,1.14.02,1.9.03,2.13-1.04,4.41-2.54,6.26-1.5,1.85-1.95.79-1.96-1.41,0-.79,0-1.18-.02-1.97,1.96-2.61,1.97-3.08,4.5-4.78M44.77,84.28c0,.32,0,.48,0,.8,0,1.2.44,1.63,1.26.63.82-1,1.61-2.68,1.59-3.84,0-.31,0-.46-.01-.77-1.7,1.33-1.76,1.67-2.84,3.18"/>
      <path class="cls-16" d="M47.58,89.93c.17-.56.26-1.12.25-1.6,0-.47-.26-.94-.81-.44-.87.79-.5,3.34-1.72,5.18-.8,1.2-1.26.61-1.26-.82,0-.77.07-1.22.18-2.08.34-.42.48-.6.76-.95-.14.69-.23,1.4-.23,1.96,0,.54.17,1.01.5.52.69-1.04.09-3.69,1.72-5.2,1.1-1.02,1.79-.14,1.8,1.08,0,.6-.06,1.2-.2,1.8-.38.2-.57.31-.99.57"/>
    </g>
  </g>
</svg>